<svg xmlns="http://www.w3.org/2000/svg" viewBox="0 0 1024 1024" width="1024" height="1024">
  <defs>
    <filter id="glow" x="-50%" y="-50%" width="200%" height="200%">
      <feGaussianBlur stdDeviation="2.5" result="blur"/>
      <feMerge>
        <feMergeNode in="blur"/>
        <feMergeNode in="SourceGraphic"/>
      </feMerge>
    </filter>
    <filter id="faceGlow" x="-50%" y="-50%" width="200%" height="200%">
      <feGaussianBlur stdDeviation="12" result="blur"/>
      <feMerge>
        <feMergeNode in="blur"/>
        <feMergeNode in="SourceGraphic"/>
      </feMerge>
    </filter>
  </defs>

  <!-- Highlighted face -->
  <polygon points="668.4,436.6 347.9,260.2 357.3,629.4" fill="#1a6bff" fill-opacity="0.12" filter="url(#faceGlow)"/>
  <polygon points="668.4,436.6 347.9,260.2 357.3,629.4" fill="#1a6bff" fill-opacity="0.08"/>
  <polygon points="668.4,436.6 681.6,797.1 357.3,629.4" fill="#1a6bff" fill-opacity="0.04"/>

  <!-- Wireframe edges -->
  <g filter="url(#glow)">
    <line x1="274.5" y1="626.5" x2="742.9" y2="336.8" stroke="#ffffff" stroke-width="1.5" stroke-opacity="0.16"/>
    <line x1="274.5" y1="626.5" x2="728.2" y2="843.9" stroke="#ffffff" stroke-width="1.5" stroke-opacity="0.22"/>
    <line x1="728.2" y1="843.9" x2="742.9" y2="336.8" stroke="#ffffff" stroke-width="1.5" stroke-opacity="0.23"/>
    <line x1="299.5" y1="154.9" x2="274.5" y2="626.5" stroke="#ffffff" stroke-width="1.5" stroke-opacity="0.25"/>
    <line x1="299.5" y1="154.9" x2="742.9" y2="336.8" stroke="#ffffff" stroke-width="1.5" stroke-opacity="0.26"/>
    <line x1="274.5" y1="626.5" x2="322.7" y2="891.2" stroke="#ffffff" stroke-width="1.5" stroke-opacity="0.35"/>
    <line x1="274.5" y1="626.5" x2="94.0" y2="512.8" stroke="#ffffff" stroke-width="1.5" stroke-opacity="0.36"/>
    <line x1="930.9" y1="511.2" x2="742.9" y2="336.8" stroke="#ffffff" stroke-width="1.5" stroke-opacity="0.37"/>
    <line x1="695.9" y1="143.6" x2="742.9" y2="336.8" stroke="#ffffff" stroke-width="1.5" stroke-opacity="0.39"/>
    <line x1="728.2" y1="843.9" x2="322.7" y2="891.2" stroke="#ffffff" stroke-width="1.5" stroke-opacity="0.42"/>
    <line x1="728.2" y1="843.9" x2="930.9" y2="511.2" stroke="#ffffff" stroke-width="1.5" stroke-opacity="0.43"/>
    <line x1="299.5" y1="154.9" x2="94.0" y2="512.8" stroke="#ffffff" stroke-width="1.5" stroke-opacity="0.46"/>
    <line x1="299.5" y1="154.9" x2="695.9" y2="143.6" stroke="#ffffff" stroke-width="1.5" stroke-opacity="0.47"/>
    <line x1="681.6" y1="797.1" x2="728.2" y2="843.9" stroke="#ffffff" stroke-width="1.5" stroke-opacity="0.55"/>
    <line x1="322.7" y1="891.2" x2="94.0" y2="512.8" stroke="#ffffff" stroke-width="1.5" stroke-opacity="0.56"/>
    <line x1="695.9" y1="143.6" x2="930.9" y2="511.2" stroke="#ffffff" stroke-width="1.5" stroke-opacity="0.59"/>
    <line x1="299.5" y1="154.9" x2="347.9" y2="260.2" stroke="#ffffff" stroke-width="1.5" stroke-opacity="0.60"/>
    <line x1="681.6" y1="797.1" x2="322.7" y2="891.2" stroke="#ffffff" stroke-width="1.5" stroke-opacity="0.68"/>
    <line x1="681.6" y1="797.1" x2="930.9" y2="511.2" stroke="#ffffff" stroke-width="1.5" stroke-opacity="0.69"/>
    <line x1="347.9" y1="260.2" x2="94.0" y2="512.8" stroke="#ffffff" stroke-width="1.5" stroke-opacity="0.72"/>
    <line x1="695.9" y1="143.6" x2="347.9" y2="260.2" stroke="#ffffff" stroke-width="1.5" stroke-opacity="0.73"/>
    <line x1="322.7" y1="891.2" x2="357.3" y2="629.4" stroke="#ffffff" stroke-width="1.5" stroke-opacity="0.76"/>
    <line x1="357.3" y1="629.4" x2="94.0" y2="512.8" stroke="#ffffff" stroke-width="1.5" stroke-opacity="0.78"/>
    <line x1="668.4" y1="436.6" x2="930.9" y2="511.2" stroke="#ffffff" stroke-width="1.5" stroke-opacity="0.79"/>
    <line x1="668.4" y1="436.6" x2="695.9" y2="143.6" stroke="#ffffff" stroke-width="1.5" stroke-opacity="0.80"/>
    <line x1="681.6" y1="797.1" x2="357.3" y2="629.4" stroke="#ffffff" stroke-width="1.5" stroke-opacity="0.89"/>
    <line x1="668.4" y1="436.6" x2="681.6" y2="797.1" stroke="#ffffff" stroke-width="1.5" stroke-opacity="0.90"/>
    <line x1="347.9" y1="260.2" x2="357.3" y2="629.4" stroke="#4d9fff" stroke-width="2" stroke-opacity="1.00"/>
    <line x1="668.4" y1="436.6" x2="347.9" y2="260.2" stroke="#4d9fff" stroke-width="2" stroke-opacity="1.00"/>
    <line x1="668.4" y1="436.6" x2="357.3" y2="629.4" stroke="#4d9fff" stroke-width="2" stroke-opacity="1.00"/>
  </g>

  <!-- Vertex dots -->
  <circle cx="668.4" cy="436.6" r="3.0" fill="#4d9fff" opacity="1.00"/>
  <circle cx="681.6" cy="797.1" r="2.7" fill="#ffffff" opacity="0.84"/>
  <circle cx="299.5" cy="154.9" r="1.8" fill="#ffffff" opacity="0.46"/>
  <circle cx="274.5" cy="626.5" r="1.5" fill="#ffffff" opacity="0.30"/>
  <circle cx="695.9" cy="143.6" r="2.3" fill="#ffffff" opacity="0.67"/>
  <circle cx="347.9" cy="260.2" r="2.7" fill="#4d9fff" opacity="0.88"/>
  <circle cx="728.2" cy="843.9" r="1.8" fill="#ffffff" opacity="0.42"/>
  <circle cx="322.7" cy="891.2" r="2.2" fill="#ffffff" opacity="0.63"/>
  <circle cx="930.9" cy="511.2" r="2.2" fill="#ffffff" opacity="0.65"/>
  <circle cx="357.3" cy="629.4" r="3.0" fill="#4d9fff" opacity="0.99"/>
  <circle cx="742.9" cy="336.8" r="1.5" fill="#ffffff" opacity="0.31"/>
  <circle cx="94.0" cy="512.8" r="2.3" fill="#ffffff" opacity="0.65"/>
</svg>
